<svg width="53" height="53" viewBox="0 0 53 53" fill="none" xmlns="http://www.w3.org/2000/svg">
<g id="Loader">
<g id="Group 182">
<path id="Ellipse 44" d="M26.5 6.75C29.1264 6.75 31.7272 7.26732 34.1537 8.27241C36.5802 9.2775 38.785 10.7507 40.6421 12.6079C42.4993 14.465 43.9725 16.6698 44.9776 19.0963C45.9827 21.5228 46.5 24.1236 46.5 26.75C46.5 29.3764 45.9827 31.9772 44.9776 34.4037C43.9725 36.8302 42.4993 39.035 40.6421 40.8921C38.785 42.7493 36.5802 44.2225 34.1537 45.2276C31.7272 46.2327 29.1264 46.75 26.5 46.75C23.8736 46.75 21.2728 46.2327 18.8463 45.2276C16.4198 44.2225 14.215 42.7493 12.3579 40.8921C10.5007 39.035 9.0275 36.8302 8.02241 34.4037C7.01731 31.9771 6.5 29.3764 6.5 26.75C6.5 24.1236 7.01732 21.5228 8.02241 19.0963C9.02751 16.6698 10.5007 14.465 12.3579 12.6079C14.215 10.7507 16.4198 9.2775 18.8463 8.2724C21.2729 7.26731 23.8736 6.75 26.5 6.75L26.5 6.75Z" stroke="#F2F4F8" stroke-width="12"/>
<path id="Ellipse 43" d="M26.5 6.75C22.5444 6.75 18.6776 7.92298 15.3886 10.1206C12.0996 12.3182 9.53616 15.4418 8.02241 19.0963C6.50866 22.7509 6.11259 26.7722 6.88429 30.6518C7.656 34.5314 9.56081 38.0951 12.3579 40.8921" stroke="#6833FF" stroke-width="12" stroke-linecap="round" stroke-linejoin="round"/>
</g>
</g>
</svg>
