<svg width="247" height="193" viewBox="0 0 247 193" fill="none" xmlns="http://www.w3.org/2000/svg">
<g id="Location Search" clip-path="url(#clip0_152_901)">
<g id="Group 183">
<path id="Vector" d="M140.643 94.1323C146.201 94.1323 150.707 89.6225 150.707 84.0594C150.707 78.4963 146.201 73.9866 140.643 73.9866C135.085 73.9866 130.579 78.4963 130.579 84.0594C130.579 89.6225 135.085 94.1323 140.643 94.1323Z" fill="#E6E6E6"/>
<path id="Vector_2" d="M165.307 97.0035L154.79 86.4772C155.596 85.2222 156.143 83.818 156.397 82.3478C156.651 80.8776 156.607 79.3713 156.269 77.9182C155.931 76.4651 155.305 75.0947 154.428 73.8883C153.551 72.6818 152.441 71.6638 151.163 70.8946C148.758 69.4565 145.901 68.9749 143.158 69.5452C140.415 70.1156 137.986 71.6962 136.352 73.974C134.849 76.084 134.127 78.6524 134.31 81.2375C134.494 83.8226 135.571 86.2631 137.358 88.1392C139.144 90.0154 141.527 91.21 144.098 91.5178C146.669 91.8256 149.267 91.2273 151.445 89.8257L161.962 100.352C162.405 100.796 163.007 101.045 163.634 101.045C164.261 101.044 164.863 100.795 165.306 100.351C165.75 99.9072 165.999 99.3052 165.999 98.6775C165.999 98.0497 165.75 97.4476 165.307 97.0035ZM151.052 86.0843C149.749 87.3886 148.035 88.2003 146.201 88.3811C144.367 88.5619 142.527 88.1007 140.994 87.0759C139.462 86.0511 138.332 84.5263 137.797 82.7612C137.262 80.996 137.355 79.0999 138.061 77.3957C138.766 75.6915 140.04 74.2849 141.665 73.4153C143.29 72.5458 145.166 72.2672 146.974 72.6271C148.781 72.9869 150.408 73.9629 151.577 75.3888C152.746 76.8147 153.385 78.6022 153.385 80.4467C153.387 81.4939 153.181 82.531 152.781 83.4985C152.38 84.466 151.793 85.3447 151.052 86.0843Z" fill="#3F3D56"/>
<path id="Vector_3" d="M241.541 112.53C268.436 142.301 190.472 185.204 127.475 185.204C64.4775 185.204 20.8934 151.962 13.4083 112.53C-4.74051 16.9229 168.04 -43.8446 127.475 39.8565C68.3453 161.861 220.36 89.0856 241.541 112.53Z" fill="#E6E6E6"/>
<path id="Vector_4" d="M229.474 119.576C256.369 149.347 178.404 192.25 115.407 192.25C52.4101 192.25 8.826 159.007 1.3409 119.576C-16.8079 23.9687 155.973 -36.7989 115.407 46.9023C56.2779 168.906 208.293 96.1314 229.474 119.576Z" fill="#3F3D56"/>
<path id="Vector_5" d="M62.3144 78.9248C43.4423 78.093 28.8096 74.0184 29.0019 69.6484C29.1171 67.0285 34.4581 64.9217 43.6553 63.8685C43.6882 63.8645 43.7216 63.8671 43.7535 63.8761C43.7855 63.885 43.8153 63.9002 43.8413 63.9208C43.8673 63.9414 43.8891 63.9669 43.9052 63.9959C43.9213 64.0249 43.9316 64.0568 43.9353 64.0897C43.9391 64.1227 43.9363 64.1561 43.9271 64.188C43.918 64.2199 43.9026 64.2496 43.8819 64.2756C43.8611 64.3015 43.8355 64.323 43.8064 64.339C43.7774 64.3549 43.7454 64.365 43.7125 64.3685C35.0487 65.3607 29.6044 67.3923 29.5042 69.6706C29.3303 73.6224 44.3657 77.63 62.3365 78.422C80.3074 79.214 95.6364 76.5445 95.8103 72.5927C95.9109 70.3049 90.6322 67.7952 82.034 66.0431C82.0015 66.0366 81.9707 66.0238 81.9432 66.0053C81.9158 65.9868 81.8922 65.9631 81.8739 65.9355C81.8556 65.908 81.843 65.877 81.8366 65.8445C81.8303 65.812 81.8304 65.7786 81.837 65.7462C81.8436 65.7137 81.8566 65.6829 81.8751 65.6555C81.8936 65.628 81.9174 65.6045 81.945 65.5863C81.9726 65.5681 82.0035 65.5555 82.036 65.5492C82.0685 65.543 82.1019 65.5432 82.1343 65.5499C91.2605 67.4097 96.4283 69.9847 96.3126 72.6149C96.1204 76.9849 81.1866 79.7565 62.3144 78.9248Z" fill="#6833FF"/>
<path id="Vector_6" d="M45.5531 79.6566C47.1319 82.6585 49.4706 85.1928 52.3352 87.0059C55.1998 88.819 58.4899 89.8473 61.8763 89.988C65.2626 90.1287 68.6266 89.3768 71.6314 87.8075C74.6363 86.2383 77.1768 83.9067 78.9987 81.0461C67.8331 81.1967 56.6678 80.7328 45.5531 79.6566Z" fill="#6833FF"/>
<path id="Vector_7" d="M81.0863 75.7529C82.0365 72.9004 82.3102 69.8656 81.886 66.8888C81.4617 63.9121 80.3511 61.075 78.6419 58.6021C76.9328 56.1292 74.6721 54.0885 72.0387 52.6414C69.4054 51.1942 66.4716 50.3805 63.4697 50.2644C60.4678 50.1484 57.4801 50.7333 54.743 51.9729C52.006 53.2124 49.5948 55.0726 47.7002 57.4061C45.8057 59.7397 44.4797 62.4826 43.8274 65.4178C43.175 68.3529 43.2142 71.3998 43.9417 74.3172C56.2091 76.4016 68.6948 76.8842 81.0863 75.7529Z" fill="#6833FF"/>
<path id="Vector_8" d="M67.1513 62.7637C68.4009 62.7637 69.4139 61.7497 69.4139 60.499C69.4139 59.2482 68.4009 58.2343 67.1513 58.2343C65.9017 58.2343 64.8887 59.2482 64.8887 60.499C64.8887 61.7497 65.9017 62.7637 67.1513 62.7637Z" fill="white"/>
<path id="Vector_9" d="M55.5063 71.5684C57.589 71.5684 59.2773 69.8785 59.2773 67.7939C59.2773 65.7093 57.589 64.0194 55.5063 64.0194C53.4236 64.0194 51.7352 65.7093 51.7352 67.7939C51.7352 69.8785 53.4236 71.5684 55.5063 71.5684Z" fill="white"/>
<path id="Vector_10" d="M87.7156 38.7242C89.104 38.7242 90.2296 37.5976 90.2296 36.2079C90.2296 34.8182 89.104 33.6917 87.7156 33.6917C86.3272 33.6917 85.2017 34.8182 85.2017 36.2079C85.2017 37.5976 86.3272 38.7242 87.7156 38.7242Z" fill="#6833FF"/>
<path id="Vector_11" d="M30.8986 115.724C31.7317 115.724 32.407 115.048 32.407 114.214C32.407 113.381 31.7317 112.705 30.8986 112.705C30.0655 112.705 29.3901 113.381 29.3901 114.214C29.3901 115.048 30.0655 115.724 30.8986 115.724Z" fill="#E6E6E6"/>
<path id="Vector_12" d="M136.488 167.561C137.321 167.561 137.996 166.885 137.996 166.051C137.996 165.217 137.321 164.541 136.488 164.541C135.655 164.541 134.979 165.217 134.979 166.051C134.979 166.885 135.655 167.561 136.488 167.561Z" fill="#E6E6E6"/>
<path id="Vector_13" d="M78.5084 124.27C79.3415 124.27 80.0169 123.594 80.0169 122.76C80.0169 121.926 79.3415 121.25 78.5084 121.25C77.6753 121.25 77 121.926 77 122.76C77 123.594 77.6753 124.27 78.5084 124.27Z" fill="#E6E6E6"/>
<path id="Vector_14" d="M38.1893 86.5347C38.6058 86.5347 38.9435 86.1967 38.9435 85.7798C38.9435 85.3629 38.6058 85.0249 38.1893 85.0249C37.7727 85.0249 37.4351 85.3629 37.4351 85.7798C37.4351 86.1967 37.7727 86.5347 38.1893 86.5347Z" fill="#E6E6E6"/>
<path id="Vector_15" d="M100.537 142.901C100.954 142.901 101.291 142.563 101.291 142.146C101.291 141.729 100.954 141.391 100.537 141.391C100.121 141.391 99.783 141.729 99.783 142.146C99.783 142.563 100.121 142.901 100.537 142.901Z" fill="#E6E6E6"/>
<path id="Vector_16" d="M213.92 135.603C214.336 135.603 214.674 135.265 214.674 134.848C214.674 134.431 214.336 134.094 213.92 134.094C213.503 134.094 213.166 134.431 213.166 134.848C213.166 135.265 213.503 135.603 213.92 135.603Z" fill="#E6E6E6"/>
<path id="Vector_17" d="M178.472 157.999C178.889 157.999 179.226 157.661 179.226 157.244C179.226 156.827 178.889 156.489 178.472 156.489C178.055 156.489 177.718 156.827 177.718 157.244C177.718 157.661 178.055 157.999 178.472 157.999Z" fill="#E6E6E6"/>
<path id="Vector_18" d="M141.516 130.822C141.932 130.822 142.27 130.484 142.27 130.067C142.27 129.65 141.932 129.312 141.516 129.312C141.099 129.312 140.762 129.65 140.762 130.067C140.762 130.484 141.099 130.822 141.516 130.822Z" fill="#E6E6E6"/>
<path id="Vector_19" d="M93.7493 56.3387C94.1659 56.3387 94.5036 56.0007 94.5036 55.5838C94.5036 55.1668 94.1659 54.8289 93.7493 54.8289C93.3328 54.8289 92.9951 55.1668 92.9951 55.5838C92.9951 56.0007 93.3328 56.3387 93.7493 56.3387Z" fill="#E6E6E6"/>
<path id="Vector_20" d="M99.7829 19.0969C100.199 19.0969 100.537 18.7589 100.537 18.342C100.537 17.925 100.199 17.587 99.7829 17.587C99.3664 17.587 99.0287 17.925 99.0287 18.342C99.0287 18.7589 99.3664 19.0969 99.7829 19.0969Z" fill="#E6E6E6"/>
<path id="Vector_21" d="M96.2633 175.865C96.6798 175.865 97.0175 175.527 97.0175 175.11C97.0175 174.693 96.6798 174.355 96.2633 174.355C95.8467 174.355 95.509 174.693 95.509 175.11C95.509 175.527 95.8467 175.865 96.2633 175.865Z" fill="#E6E6E6"/>
<path id="Vector_22" d="M59.0557 160.012C59.4723 160.012 59.81 159.674 59.81 159.257C59.81 158.84 59.4723 158.502 59.0557 158.502C58.6392 158.502 58.3015 158.84 58.3015 159.257C58.3015 159.674 58.6392 160.012 59.0557 160.012Z" fill="#E6E6E6"/>
<path id="Vector_23" d="M176.964 132.835C177.38 132.835 177.718 132.497 177.718 132.08C177.718 131.663 177.38 131.325 176.964 131.325C176.547 131.325 176.209 131.663 176.209 132.08C176.209 132.497 176.547 132.835 176.964 132.835Z" fill="#E6E6E6"/>
<path id="Vector_24" d="M62.0076 88.2285C63.2572 88.2285 64.2702 87.2146 64.2702 85.9638C64.2702 84.713 63.2572 83.6991 62.0076 83.6991C60.758 83.6991 59.745 84.713 59.745 85.9638C59.745 87.2146 60.758 88.2285 62.0076 88.2285Z" fill="white"/>
<path id="Vector_25" d="M205.359 80.2493C205.295 80.373 205.242 80.5016 205.198 80.6339L193.185 83.9748L191.02 81.8544L187.396 84.7062L190.864 88.8327C191.144 89.1661 191.525 89.3995 191.949 89.4979C192.373 89.5963 192.817 89.5544 193.215 89.3785L206.192 83.6451C206.632 83.9509 207.155 84.1154 207.691 84.1166C208.227 84.1178 208.75 83.9556 209.192 83.6517C209.634 83.3478 209.972 82.9165 210.163 82.4152C210.354 81.9139 210.387 81.3664 210.26 80.8455C210.132 80.3246 209.849 79.8549 209.448 79.499C209.047 79.1431 208.547 78.9178 208.015 78.853C207.483 78.7883 206.944 78.8872 206.47 79.1367C205.995 79.3861 205.608 79.7741 205.359 80.2493H205.359Z" fill="#FFB8B8"/>
<path id="Vector_26" d="M192.762 84.1705L188.253 87.6832C188.125 87.7832 187.976 87.8543 187.818 87.8917C187.66 87.9291 187.496 87.9319 187.336 87.9C187.177 87.868 187.026 87.8021 186.894 87.7066C186.763 87.6112 186.653 87.4884 186.573 87.3468L183.771 82.3827C183.264 81.7228 183.038 80.8885 183.145 80.0627C183.251 79.2369 183.68 78.487 184.338 77.9775C184.996 77.4681 185.829 77.2405 186.655 77.3449C187.48 77.4492 188.23 77.8769 188.741 78.5341L192.848 82.4581C192.966 82.5704 193.058 82.7069 193.118 82.858C193.178 83.0092 193.205 83.1716 193.197 83.3341C193.189 83.4966 193.146 83.6555 193.071 83.7998C192.996 83.9441 192.89 84.0706 192.762 84.1705V84.1705Z" fill="#6833FF"/>
<path id="Vector_27" d="M206.511 78.5877L211.084 80.6468C211.275 80.733 211.424 80.8919 211.499 81.0884C211.573 81.2848 211.567 81.5029 211.481 81.6946L210.939 82.899C211.003 82.9279 211.053 82.9808 211.077 83.0463C211.102 83.1117 211.1 83.1843 211.072 83.2482L210.855 83.73C210.826 83.7937 210.773 83.8434 210.708 83.8683C210.643 83.8931 210.57 83.891 210.506 83.8625L210.29 84.3442C210.353 84.3732 210.403 84.4261 210.428 84.4916C210.453 84.557 210.451 84.6296 210.422 84.6935L210.206 85.1753C210.177 85.239 210.124 85.2887 210.058 85.3136C209.993 85.3384 209.92 85.3363 209.857 85.3078L206.933 91.8116C206.847 92.0032 206.688 92.1527 206.492 92.2273C206.296 92.3018 206.078 92.2953 205.886 92.2091L201.314 90.15C201.122 90.0637 200.973 89.9049 200.899 89.7084C200.824 89.5119 200.831 89.2939 200.917 89.1022L205.464 78.9852C205.55 78.7936 205.709 78.644 205.905 78.5695C206.102 78.4949 206.32 78.5015 206.511 78.5877Z" fill="#3F3D56"/>
<path id="Vector_28" d="M202.144 89.5092L205.812 91.1627C205.996 91.2449 206.205 91.2511 206.393 91.1799C206.582 91.1086 206.734 90.9657 206.818 90.7823L208.512 87.0105L209.1 85.703L210.634 82.2903C210.716 82.1067 210.722 81.8981 210.65 81.71C210.579 81.522 210.437 81.3698 210.254 81.2866L209.1 80.7662L206.583 79.6331C206.399 79.551 206.19 79.5452 206.002 79.617C205.814 79.6888 205.662 79.8323 205.58 80.0161L204.097 83.3152L202.408 87.0712L201.764 88.5055C201.682 88.6891 201.676 88.8978 201.747 89.0859C201.818 89.274 201.961 89.4262 202.144 89.5092Z" fill="#F2F2F2"/>
<path id="Vector_29" d="M194.479 136.244L197.562 136.243L199.028 124.344L194.479 124.344L194.479 136.244Z" fill="#FFB8B8"/>
<path id="Vector_30" d="M193.693 135.236L199.763 135.236H199.763C200.271 135.236 200.774 135.336 201.244 135.531C201.713 135.725 202.139 136.011 202.499 136.37C202.858 136.73 203.143 137.156 203.337 137.626C203.532 138.096 203.632 138.599 203.632 139.108V139.234L193.694 139.234L193.693 135.236Z" fill="#2F2E41"/>
<path id="Vector_31" d="M202.524 135.489L205.606 135.489L207.073 123.589L202.524 123.589L202.524 135.489Z" fill="#FFB8B8"/>
<path id="Vector_32" d="M201.738 134.481L207.808 134.481H207.808C208.316 134.481 208.819 134.581 209.289 134.776C209.758 134.97 210.184 135.256 210.543 135.615C210.903 135.975 211.188 136.402 211.382 136.871C211.576 137.341 211.676 137.844 211.676 138.353V138.479L201.738 138.479L201.738 134.481Z" fill="#2F2E41"/>
<path id="Vector_33" d="M180.654 108.321C181.311 110.27 182.557 111.965 184.219 113.174C185.881 114.383 187.877 115.044 189.931 115.067L190.087 115.07C191.678 115.115 193.546 114.602 195.379 113.865C198.999 112.408 202.476 110.075 203.399 109.433L201.835 124.479L201.201 130.578C201.185 130.736 201.203 130.895 201.252 131.046C201.301 131.197 201.381 131.336 201.488 131.453C201.594 131.571 201.723 131.665 201.868 131.73C202.013 131.795 202.169 131.828 202.328 131.829H206.232C206.482 131.829 206.726 131.746 206.924 131.593C207.122 131.44 207.264 131.226 207.328 130.983L213.774 106.411C213.967 105.676 213.983 104.905 213.819 104.162C213.656 103.419 213.318 102.726 212.834 102.14C212.35 101.554 211.733 101.092 211.035 100.792C210.336 100.492 209.577 100.363 208.819 100.415L195.429 101.333L196.364 97.589L184.413 96.7938L184.378 96.819C184.091 97.0278 183.812 97.2468 183.545 97.4757C182.879 98.0398 182.288 98.6876 181.788 99.4033C180.893 100.687 180.322 102.169 180.125 103.723C179.927 105.276 180.109 106.854 180.654 108.321Z" fill="#2F2E41"/>
<path id="Vector_34" d="M180.654 108.321C181.311 110.269 182.557 111.965 184.219 113.174C185.881 114.383 187.877 115.044 189.931 115.067C191.895 114.072 193.791 112.947 195.605 111.698L195.379 113.865L193.408 132.843C193.392 133.001 193.409 133.16 193.458 133.311C193.508 133.461 193.588 133.6 193.694 133.718C193.8 133.836 193.93 133.93 194.074 133.995C194.219 134.059 194.376 134.093 194.534 134.093H198.438C198.689 134.094 198.932 134.011 199.131 133.858C199.329 133.705 199.471 133.49 199.535 133.248L201.835 124.478L205.981 108.676C206.174 107.94 206.189 107.169 206.026 106.427C205.862 105.684 205.525 104.991 205.04 104.405C204.556 103.819 203.939 103.357 203.241 103.057C202.543 102.757 201.783 102.627 201.025 102.679L187.636 103.598L188.571 99.8536L181.788 99.4032C180.893 100.687 180.322 102.169 180.125 103.722C179.927 105.276 180.109 106.854 180.654 108.321Z" fill="#2F2E41"/>
<path id="Vector_35" d="M183.528 98.3438L183.438 98.333L181.353 88.0701C181.335 87.981 179.63 79.1288 184.857 74.5009L184.948 73.8676C184.971 73.7055 185.029 73.5504 185.118 73.4129C185.207 73.2755 185.325 73.159 185.463 73.0715C185.601 72.984 185.757 72.9276 185.919 72.9061C186.081 72.8847 186.246 72.8987 186.402 72.9472L191.326 74.4758C191.605 74.5617 191.84 74.7522 191.981 75.0075C192.123 75.2628 192.16 75.5629 192.085 75.8451L191.607 77.6674C192.27 78.4475 200.082 87.8616 197.361 95.1145L196.142 99.8834L183.528 98.3438Z" fill="#6833FF"/>
<path id="Vector_36" d="M203.972 90.3341C203.855 90.4082 203.743 90.4916 203.638 90.5833L191.597 87.3478L190.81 84.4203L186.24 85.032L187.131 90.3501C187.203 90.7797 187.412 91.1744 187.727 91.4749C188.042 91.7754 188.446 91.9654 188.878 92.0165L202.965 93.6821C203.189 94.1695 203.555 94.5772 204.016 94.8509C204.477 95.1246 205.01 95.2513 205.545 95.2143C206.08 95.1773 206.59 94.9782 207.009 94.6436C207.428 94.309 207.735 93.8546 207.89 93.341C208.044 92.8274 208.039 92.2789 207.874 91.7684C207.71 91.2579 207.394 90.8096 206.969 90.4832C206.544 90.1568 206.029 89.9677 205.494 89.941C204.959 89.9144 204.428 90.0515 203.972 90.3341H203.972Z" fill="#FFB8B8"/>
<path id="Vector_37" d="M191.133 87.301L185.466 88.0316C185.305 88.0524 185.141 88.0381 184.986 87.9898C184.83 87.9415 184.687 87.8603 184.566 87.7517C184.445 87.6431 184.349 87.5097 184.284 87.3604C184.219 87.2112 184.187 87.0498 184.19 86.8871L184.298 81.1864C184.197 80.3601 184.427 79.5272 184.938 78.8702C185.449 78.2133 186.199 77.786 187.024 77.6821C187.85 77.5781 188.683 77.806 189.34 78.3157C189.998 78.8255 190.427 79.5754 190.533 80.4012L192.077 85.8703C192.121 86.0269 192.131 86.1912 192.106 86.352C192.081 86.5128 192.022 86.6663 191.932 86.802C191.843 86.9378 191.725 87.0527 191.587 87.1388C191.449 87.2248 191.294 87.2802 191.133 87.301Z" fill="#6833FF"/>
<path id="Vector_38" d="M189.538 71.5541C192.948 71.5541 195.712 68.7871 195.712 65.3737C195.712 61.9604 192.948 59.1934 189.538 59.1934C186.128 59.1934 183.363 61.9604 183.363 65.3737C183.363 68.7871 186.128 71.5541 189.538 71.5541Z" fill="#FFB8B8"/>
<path id="Vector_39" d="M189.213 65.8899L188.44 64.4809C186.976 70.4527 189.562 75.395 189.562 75.395L179.523 70.7144L179.619 69.0536L178.625 70.182L177.198 69.3947L177.009 68.3175L175.932 68.5846L179.865 61.4414C183.682 54.644 189.231 57.2392 189.231 57.2392C198.059 56.8191 196.981 65.5369 196.981 65.5369L189.213 65.8899Z" fill="#2F2E41"/>
<path id="Vector_40" d="M118.924 111.947C120.347 111.033 118.616 105.788 115.057 100.23C111.497 94.6729 107.458 90.9083 106.034 91.8218C104.61 92.7353 106.342 97.981 109.901 103.538C113.46 109.096 117.5 112.86 118.924 111.947Z" fill="#3F3D56"/>
</g>
</g>
<defs>
<clipPath id="clip0_152_901">
<rect width="247" height="192" fill="white" transform="translate(0 0.25)"/>
</clipPath>
</defs>
</svg>
